<?xml version="1.0" standalone="no"?><!DOCTYPE svg PUBLIC "-//W3C//DTD SVG 1.1//EN" "http://www.w3.org/Graphics/SVG/1.1/DTD/svg11.dtd"><svg t="1576492528458" class="icon" viewBox="0 0 1024 1024" version="1.1" xmlns="http://www.w3.org/2000/svg" p-id="7568" xmlns:xlink="http://www.w3.org/1999/xlink" width="32" height="32"><defs><style type="text/css"></style></defs><path d="M0 520.885677c0-69.367742 13.510194-135.696516 40.497548-199.019354 26.987355-63.322839 63.322839-117.826065 109.006452-163.509678 45.650581-45.650581 100.153806-81.986065 163.509677-109.006451A502.288516 502.288516 0 0 1 512 8.91871c69.33471 0 135.663484 13.477161 198.986323 40.497548 63.355871 26.987355 117.859097 63.322839 163.509677 109.006452 45.683613 45.650581 82.019097 100.153806 109.006452 163.509677A502.288516 502.288516 0 0 1 1024 520.852645c0 111.31871-32.503742 211.472516-97.511226 300.494452-64.974452 88.988903-148.48 150.82529-250.483613 185.476129-5.351226 0-9.348129-0.990968-11.990709-2.972903-2.675613-1.981935-4.195097-3.996903-4.52542-6.011871a59.458065 59.458065 0 0 1-0.495484-8.984775 7.663484 7.663484 0 0 1-0.990967-3.005935V856.856774c0-40.629677-14.336-75.313548-43.008-103.985548 76.667871-13.345032 134.011871-41.818839 171.998967-85.487484 37.987097-43.668645 57.013677-96.520258 57.013678-158.521807 0-58.004645-18.663226-108.345806-56.02271-150.990451 13.345032-42.677677 10.999742-87.667613-6.969806-135.002839-18.696258-1.32129-39.011097 1.849806-61.010581 9.51329-21.999484 7.663484-38.317419 14.831484-49.019871 21.470968-10.636387 6.672516-20.314839 13.01471-28.96929 19.026581-38.680774-10.669419-81.853935-16.020645-129.486452-16.020645-47.698581 0-90.508387 5.351226-128.528516 16.020645-7.333161-5.351226-15.855484-11.164903-25.500903-17.507097-9.678452-6.342194-26.491871-14.005677-50.506323-22.990452-23.981419-9.017806-45.650581-12.849548-65.007484-11.495225-18.663226 47.995871-20.645161 93.646452-5.978838 136.984774-36.665806 42.677677-54.99871 92.985806-54.99871 150.990451 0 62.001548 18.663226 114.688 55.989677 157.993291 37.326452 43.338323 94.670452 72.010323 171.998968 86.016a142.302968 142.302968 0 0 0-39.969032 70.028387c-56.683355 13.972645-96.355097 3.963871-119.015226-30.059355-42.017032-61.307871-79.673806-83.307355-113.003355-65.965419-4.690581 4.657548-3.996903 9.480258 1.981936 14.501161 6.011871 4.987871 14.996645 11.660387 27.020387 19.984516 11.99071 8.357161 20.975484 17.507097 26.987355 27.515871 0.660645 1.32129 2.510452 6.177032 5.516387 14.501161 2.972903 8.324129 5.978839 16.317935 8.984774 23.98142 2.972903 7.663484 8.654452 16.185806 17.011613 25.500903 8.324129 9.348129 18.002581 17.176774 29.002322 23.518968 10.999742 6.309161 26.161548 10.999742 45.48542 14.005677 19.323871 2.972903 41.323355 3.138065 65.998451 0.495484v100.484129c0 0.990968-0.165161 2.642581-0.495484 5.020903-0.330323 2.312258-0.990968 3.963871-1.981935 4.954839-0.990968 1.024-2.34529 2.014968-4.029935 3.038968a12.519226 12.519226 0 0 1-6.474323 1.486451c-2.675613 0-6.011871-0.330323-10.008774-0.990967-101.342968-35.344516-183.824516-97.180903-247.51071-185.509162C31.843097 731.036903 0 631.576774 0 520.91871z" p-id="7569" fill="#2db7f5"></path></svg>