<?xml version="1.0" standalone="no"?><!DOCTYPE svg PUBLIC "-//W3C//DTD SVG 1.1//EN" "http://www.w3.org/Graphics/SVG/1.1/DTD/svg11.dtd"><svg t="1576492432810" class="icon" viewBox="0 0 1024 1024" version="1.1" xmlns="http://www.w3.org/2000/svg" p-id="5802" width="32" height="32" xmlns:xlink="http://www.w3.org/1999/xlink"><defs><style type="text/css"></style></defs><path d="M798.523 684.701c8.215-10.903 10.822-35.444 9.961-52.295-4.651-64.079-47.657-117.761-72.514-145.534 3.455-8.076 11.852-54.84-20.573-86.752 0.057-0.76 0.057-1.518 0.057-2.26 0-125.865-89.587-216.458-202.005-216.876-112.426 0.418-202.006 91.011-202.006 216.876 0 0.742-0.013 1.5 0.039 2.26-32.419 31.906-24.01 78.672-20.574 86.752-24.838 27.773-67.849 81.455-72.506 145.534-0.842 16.851 1.759 41.392 9.992 52.295 10.029 13.295 37.55-2.67 57.238-45.157 5.479 19.68 18.116 49.732 46.714 87.878-47.859 10.922-61.516 58.124-45.418 83.937 11.359 18.18 37.368 33.14 82.171 33.14 79.728 0 114.937-21.421 130.651-36.349 3.201-3.253 7.821-4.821 13.705-4.834 5.879 0.013 10.506 1.581 13.696 4.834 15.712 14.928 50.928 36.349 130.636 36.349 44.828 0 70.811-14.961 82.164-33.14 16.111-25.813 2.463-73.021-45.392-83.937 28.604-38.152 41.24-68.198 46.714-87.878 19.694 42.487 47.208 58.452 57.25 45.157zM956.81 195.359l2.69 633.278c0 70.646-57.693 130.863-130.864 130.863H195.359C124.717 959.5 64.5 901.808 64.5 828.637V195.359c0-70.641 57.526-130.858 130.859-130.858h630.587c70.647 0 130.864 57.692 130.864 130.858z" fill="#2db7f5" p-id="5803"></path></svg>