<?xml version="1.0" standalone="no"?><!DOCTYPE svg PUBLIC "-//W3C//DTD SVG 1.1//EN" "http://www.w3.org/Graphics/SVG/1.1/DTD/svg11.dtd"><svg t="1576249932078" class="icon" viewBox="0 0 1024 1024" version="1.1" xmlns="http://www.w3.org/2000/svg" p-id="8960" xmlns:xlink="http://www.w3.org/1999/xlink" width="32" height="32"><defs><style type="text/css"></style></defs><path d="M632 164.7H398.1v15.6H632v-15.6z m171.5 0h-78v15.6h78v-15.6z m-499 0h-78v15.6h78v-15.6z m343.1 639.4v-31.2h-31.2v31.2h31.2z m62.4 0v-31.2h-31.2v31.2H710z m62.4 0v-31.2h-31.2v31.2h31.2zM554 617H257.7v31.2H554V617z m218.4-140.4H257.7v31.2h514.6v-31.2z m0-140.3H257.7v31.2h514.6v-31.2zM632 117.9H398.1v31.2H632v-31.2z m62.4-31.1h-31.2v93.6h31.2V86.8z m-327.5 0h-31.2v93.6h31.2V86.8z m358.7 31.1v31.2h93.6v748.6H210.9V149.1h93.6v-31.2H179.7v810.9h670.6V117.9H725.6z" fill="#ffffff" p-id="8961"></path></svg>