<?xml version="1.0" standalone="no"?><!DOCTYPE svg PUBLIC "-//W3C//DTD SVG 1.1//EN" "http://www.w3.org/Graphics/SVG/1.1/DTD/svg11.dtd"><svg t="1576492682917" class="icon" viewBox="0 0 1024 1024" version="1.1" xmlns="http://www.w3.org/2000/svg" p-id="11249" xmlns:xlink="http://www.w3.org/1999/xlink" width="32" height="32"><defs><style type="text/css"></style></defs><path d="M706.048 850.432l96.768-74.752h77.312V263.168h-216.064v512.512h19.968z" fill="#2db7f5" p-id="11250"></path><path d="M843.776 24.064H183.808C96.256 24.064 25.6 95.232 25.6 182.784v659.456c0 87.552 71.168 158.72 158.208 158.72h659.968c87.552 0 158.208-71.168 158.208-158.72V182.784c0-87.552-70.656-158.72-158.208-158.72z m-299.008 537.6H367.616L337.92 681.984l41.984-36.352s95.232 110.08 113.664 137.216c16.384 27.648 2.048 124.416 2.048 124.416L332.8 704s-51.2 181.248-120.832 223.232c-69.632 40.448-140.8 10.752-140.8 10.752s98.816-71.168 152.064-161.28c51.2-89.6 69.632-214.016 69.632-214.016H89.088s14.848-73.216 41.984-75.264c27.648-2.048 161.28 0 161.28 0l-2.048-223.232-76.8 3.584S198.656 322.56 156.672 353.792C114.688 385.024 89.088 373.76 89.088 373.76s75.264-210.432 98.816-252.416c23.552-41.984 89.6-45.568 89.6-45.568l-44.032 117.248h261.632c31.232 0 32.768 73.216 32.768 73.216H367.616v220.16s108.032-3.584 142.848 0c34.304 3.584 34.304 75.264 34.304 75.264z m408.576 287.232h-162.816l-115.2 82.432-23.552-82.432h-66.048l2.048-660.992h366.08v660.992z" fill="#2db7f5" p-id="11251"></path></svg>