<svg t="1615608269959" class="icon" viewBox="0 0 1024 1024" version="1.1" xmlns="http://www.w3.org/2000/svg" p-id="2125" width="32" height="32"><path d="M401.346 488.006H147.342c-46.758 0-84.815-38.057-84.815-84.815V149.188c0-46.758 38.057-84.815 84.815-84.815h254.004c46.758 0 84.814 38.057 84.814 84.814v254.004c0.088 46.758-37.969 84.815-84.814 84.815zM147.342 117.02c-17.666 0-32.08 14.414-32.08 32.08v254.004c0 17.666 14.414 32.08 32.08 32.08h254.004c17.666 0 32.08-14.414 32.08-32.08V149.1c0-17.666-14.414-32.08-32.08-32.08H147.342z m729.14 370.546H622.48c-46.758 0-84.815-38.056-84.815-84.814V148.748c0-46.758 38.057-84.814 84.815-84.814h254.003c46.758 0 84.815 38.056 84.815 84.814v254.004c0 46.758-38.057 84.814-84.815 84.814zM622.48 116.668c-17.667 0-32.08 14.414-32.08 32.08v254.004c0 17.666 14.413 32.08 32.08 32.08h254.003c17.666 0 32.08-14.414 32.08-32.08V148.748c0-17.666-14.414-32.08-32.08-32.08H622.48zM401.96 962H147.957c-46.758 0-84.814-38.057-84.814-84.814V623.182c0-46.758 38.056-84.815 84.814-84.815h254.004c46.758 0 84.814 38.057 84.814 84.815v254.004c0 46.757-38.056 84.814-84.814 84.814zM147.957 591.014c-17.666 0-32.08 14.414-32.08 32.08v254.004c0 17.666 14.414 32.08 32.08 32.08h254.004c17.666 0 32.08-14.414 32.08-32.08V623.094c0-17.666-14.414-32.08-32.08-32.08H147.957z m729.14 370.634H623.095c-46.758 0-84.815-38.056-84.815-84.814V622.742c0-46.758 38.057-84.814 84.815-84.814h254.004c46.757 0 84.814 38.056 84.814 84.814v254.004c0 46.846-38.057 84.902-84.814 84.902zM623.095 590.662c-17.666 0-32.08 14.414-32.08 32.08v254.004c0 17.666 14.414 32.08 32.08 32.08h254.004c17.666 0 32.08-14.414 32.08-32.08V622.742c0-17.666-14.414-32.08-32.08-32.08H623.094z" p-id="2126" fill="#e6e6e6"></path></svg>