<?xml version="1.0" standalone="no"?><!DOCTYPE svg PUBLIC "-//W3C//DTD SVG 1.1//EN" "http://www.w3.org/Graphics/SVG/1.1/DTD/svg11.dtd"><svg t="1576248139402" class="icon" viewBox="0 0 1024 1024" version="1.1" xmlns="http://www.w3.org/2000/svg" p-id="2192" width="30" height="30" xmlns:xlink="http://www.w3.org/1999/xlink"><defs><style type="text/css"></style></defs><path d="M204.8 307.268267A102.365867 102.365867 0 0 1 307.268267 204.8h68.130133A102.365867 102.365867 0 0 1 477.866667 307.268267V477.866667H307.268267A102.365867 102.365867 0 0 1 204.8 375.3984V307.268267z m0 409.463466v-68.130133A102.365867 102.365867 0 0 1 307.268267 546.133333H477.866667v170.5984A102.365867 102.365867 0 0 1 375.3984 819.2H307.268267A102.365867 102.365867 0 0 1 204.8 716.731733zM819.2 307.268267v68.130133A102.365867 102.365867 0 0 1 716.731733 477.866667H546.133333V307.268267A102.365867 102.365867 0 0 1 648.6016 204.8h68.130133A102.365867 102.365867 0 0 1 819.2 307.268267z m0 409.463466A102.365867 102.365867 0 0 1 716.731733 819.2h-68.130133A102.365867 102.365867 0 0 1 546.133333 716.731733V546.133333h170.5984A102.365867 102.365867 0 0 1 819.2 648.6016v68.130133zM341.333333 409.6a68.266667 68.266667 0 1 0 0-136.533333 68.266667 68.266667 0 0 0 0 136.533333z m0 341.333333a68.266667 68.266667 0 1 0 0-136.533333 68.266667 68.266667 0 0 0 0 136.533333z m341.333334-341.333333a68.266667 68.266667 0 1 0 0-136.533333 68.266667 68.266667 0 0 0 0 136.533333z m0 341.333333a68.266667 68.266667 0 1 0 0-136.533333 68.266667 68.266667 0 0 0 0 136.533333z" fill="#ffffff" p-id="2193"></path></svg>