<?xml version="1.0" standalone="no"?><!DOCTYPE svg PUBLIC "-//W3C//DTD SVG 1.1//EN" "http://www.w3.org/Graphics/SVG/1.1/DTD/svg11.dtd"><svg t="1576249506297" class="icon" viewBox="0 0 1024 1024" version="1.1" xmlns="http://www.w3.org/2000/svg" p-id="6828" xmlns:xlink="http://www.w3.org/1999/xlink" width="32" height="32"><defs><style type="text/css"></style></defs><path d="M626.837657 266.937775m-22.627417 22.627417a32 32 0 1 0 45.254834-45.254834 32 32 0 1 0-45.254834 45.254834Z" p-id="6829" fill="#ffffff"></path><path d="M352.64 852.32L171.6 671.36 521.12 320a32 32 0 0 1 46.4 1.28 33.2 33.2 0 0 1-2.48 45.28l-280 281.84a32 32 0 0 0 0 45.28l45.28 45.28a32 32 0 0 0 45.28 0l457.84-457.84a32 32 0 0 0 0-45.28l-45.28-45.28a32 32 0 0 0-45.28 0l-13.76 15.04a32 32 0 0 1-46.48-1.28 33.2 33.2 0 0 1 2.48-45.28l34.88-36a64 64 0 0 1 90.48 0l90.48 90.48a64 64 0 0 1 0 90.48z" p-id="6830" fill="#ffffff"></path><path d="M184 917.76a64 64 0 0 1-77.6-77.6l56.96-153.92a32 32 0 0 1 45.12-20.96 32.56 32.56 0 0 1 16.72 37.36c-7.2 28.64-46.96 113.68-53.52 140.16a8 8 0 0 0 9.68 9.68l141.04-53.76a32 32 0 0 1 39.44 26.4 32.88 32.88 0 0 1-25.2 36.08z" p-id="6831" fill="#ffffff"></path></svg>